<mxfile host="Electron" agent="Mozilla/5.0 (Windows NT 10.0; Win64; x64) AppleWebKit/537.36 (KHTML, like Gecko) draw.io/26.0.4 Chrome/128.0.6613.186 Electron/32.2.5 Safari/537.36" version="26.0.4">
  <diagram id="hflikQJomzujbNlSvsc_" name="Page-1">
    <mxGraphModel dx="2467" dy="449" grid="1" gridSize="10" guides="1" tooltips="1" connect="1" arrows="1" fold="1" page="1" pageScale="1" pageWidth="850" pageHeight="1100" math="0" shadow="0">
      <root>
        <mxCell id="0" />
        <mxCell id="1" parent="0" />
        <mxCell id="KT0k6_RB1WQHjz7tz0Gw-24" value="Blog_Post_Schema" style="shape=table;startSize=30;container=1;collapsible=0;childLayout=tableLayout;fixedRows=1;rowLines=1;fontStyle=1;align=center;resizeLast=1;fontSize=20;" parent="1" vertex="1">
          <mxGeometry x="10" y="210" width="254" height="100" as="geometry" />
        </mxCell>
        <mxCell id="KT0k6_RB1WQHjz7tz0Gw-25" style="shape=tableRow;horizontal=0;startSize=0;swimlaneHead=0;swimlaneBody=0;fillColor=none;collapsible=0;dropTarget=0;points=[[0,0.5],[1,0.5]];portConstraint=eastwest;top=0;left=0;right=0;bottom=0;" parent="KT0k6_RB1WQHjz7tz0Gw-24" vertex="1">
          <mxGeometry y="30" width="254" height="22" as="geometry" />
        </mxCell>
        <mxCell id="KT0k6_RB1WQHjz7tz0Gw-26" value="String" style="shape=partialRectangle;connectable=0;fillColor=none;top=0;left=0;bottom=0;right=0;align=left;spacingLeft=2;overflow=hidden;fontSize=15;" parent="KT0k6_RB1WQHjz7tz0Gw-25" vertex="1">
          <mxGeometry width="64" height="22" as="geometry">
            <mxRectangle width="64" height="22" as="alternateBounds" />
          </mxGeometry>
        </mxCell>
        <mxCell id="KT0k6_RB1WQHjz7tz0Gw-27" value="title" style="shape=partialRectangle;connectable=0;fillColor=none;top=0;left=0;bottom=0;right=0;align=left;spacingLeft=2;overflow=hidden;fontSize=15;" parent="KT0k6_RB1WQHjz7tz0Gw-25" vertex="1">
          <mxGeometry x="64" width="190" height="22" as="geometry">
            <mxRectangle width="190" height="22" as="alternateBounds" />
          </mxGeometry>
        </mxCell>
        <mxCell id="KT0k6_RB1WQHjz7tz0Gw-28" style="shape=tableRow;horizontal=0;startSize=0;swimlaneHead=0;swimlaneBody=0;fillColor=none;collapsible=0;dropTarget=0;points=[[0,0.5],[1,0.5]];portConstraint=eastwest;top=0;left=0;right=0;bottom=0;" parent="KT0k6_RB1WQHjz7tz0Gw-24" vertex="1">
          <mxGeometry y="52" width="254" height="22" as="geometry" />
        </mxCell>
        <mxCell id="KT0k6_RB1WQHjz7tz0Gw-29" value="String" style="shape=partialRectangle;connectable=0;fillColor=none;top=0;left=0;bottom=0;right=0;align=left;spacingLeft=2;overflow=hidden;fontSize=15;" parent="KT0k6_RB1WQHjz7tz0Gw-28" vertex="1">
          <mxGeometry width="64" height="22" as="geometry">
            <mxRectangle width="64" height="22" as="alternateBounds" />
          </mxGeometry>
        </mxCell>
        <mxCell id="KT0k6_RB1WQHjz7tz0Gw-30" value="content" style="shape=partialRectangle;connectable=0;fillColor=none;top=0;left=0;bottom=0;right=0;align=left;spacingLeft=2;overflow=hidden;fontSize=15;" parent="KT0k6_RB1WQHjz7tz0Gw-28" vertex="1">
          <mxGeometry x="64" width="190" height="22" as="geometry">
            <mxRectangle width="190" height="22" as="alternateBounds" />
          </mxGeometry>
        </mxCell>
        <mxCell id="KT0k6_RB1WQHjz7tz0Gw-31" style="shape=tableRow;horizontal=0;startSize=0;swimlaneHead=0;swimlaneBody=0;fillColor=none;collapsible=0;dropTarget=0;points=[[0,0.5],[1,0.5]];portConstraint=eastwest;top=0;left=0;right=0;bottom=0;" parent="KT0k6_RB1WQHjz7tz0Gw-24" vertex="1">
          <mxGeometry y="74" width="254" height="22" as="geometry" />
        </mxCell>
        <mxCell id="KT0k6_RB1WQHjz7tz0Gw-32" value="String" style="shape=partialRectangle;connectable=0;fillColor=none;top=0;left=0;bottom=0;right=0;align=left;spacingLeft=2;overflow=hidden;fontSize=15;" parent="KT0k6_RB1WQHjz7tz0Gw-31" vertex="1">
          <mxGeometry width="64" height="22" as="geometry">
            <mxRectangle width="64" height="22" as="alternateBounds" />
          </mxGeometry>
        </mxCell>
        <mxCell id="KT0k6_RB1WQHjz7tz0Gw-33" value="image" style="shape=partialRectangle;connectable=0;fillColor=none;top=0;left=0;bottom=0;right=0;align=left;spacingLeft=2;overflow=hidden;fontSize=15;" parent="KT0k6_RB1WQHjz7tz0Gw-31" vertex="1">
          <mxGeometry x="64" width="190" height="22" as="geometry">
            <mxRectangle width="190" height="22" as="alternateBounds" />
          </mxGeometry>
        </mxCell>
        <mxCell id="KT0k6_RB1WQHjz7tz0Gw-76" value="&lt;font&gt;Component Diagram&lt;/font&gt;" style="swimlane;whiteSpace=wrap;html=1;startSize=70;fontSize=30;" parent="1" vertex="1">
          <mxGeometry x="-1020" width="678" height="650" as="geometry" />
        </mxCell>
        <mxCell id="KT0k6_RB1WQHjz7tz0Gw-34" value="Frontend" style="fillColor=#0050ef;strokeColor=#001DBC;fontSize=15;fontColor=#ffffff;" parent="KT0k6_RB1WQHjz7tz0Gw-76" vertex="1">
          <mxGeometry x="233" y="90" width="125" height="54" as="geometry" />
        </mxCell>
        <mxCell id="KT0k6_RB1WQHjz7tz0Gw-35" value="Express Server" style="fillColor=#1ba1e2;strokeColor=#006EAF;fillStyle=auto;fontStyle=1;fontSize=15;fontColor=#ffffff;" parent="KT0k6_RB1WQHjz7tz0Gw-76" vertex="1">
          <mxGeometry x="131" y="216" width="164" height="54" as="geometry" />
        </mxCell>
        <mxCell id="KT0k6_RB1WQHjz7tz0Gw-36" value="Routes" style="fillColor=#e6d0de;strokeColor=#996185;gradientColor=#d5739d;fontStyle=1;fontSize=15;" parent="KT0k6_RB1WQHjz7tz0Gw-76" vertex="1">
          <mxGeometry x="159" y="343" width="108" height="54" as="geometry" />
        </mxCell>
        <mxCell id="KT0k6_RB1WQHjz7tz0Gw-37" value="Multer Middleware" style="fillColor=#ffcd28;strokeColor=#d79b00;gradientColor=#ffa500;fontSize=15;" parent="KT0k6_RB1WQHjz7tz0Gw-76" vertex="1">
          <mxGeometry x="116" y="447" width="193" height="54" as="geometry" />
        </mxCell>
        <mxCell id="KT0k6_RB1WQHjz7tz0Gw-38" value="Controllers" style="fillColor=#d80073;strokeColor=#A50040;fontColor=#ffffff;fontSize=15;" parent="KT0k6_RB1WQHjz7tz0Gw-76" vertex="1">
          <mxGeometry x="359" y="447" width="139" height="54" as="geometry" />
        </mxCell>
        <mxCell id="KT0k6_RB1WQHjz7tz0Gw-39" value="MongoDB" style="fillColor=#008a00;strokeColor=#005700;fontColor=#ffffff;fontSize=15;" parent="KT0k6_RB1WQHjz7tz0Gw-76" vertex="1">
          <mxGeometry x="251" y="573" width="124" height="54" as="geometry" />
        </mxCell>
        <mxCell id="KT0k6_RB1WQHjz7tz0Gw-40" value="Cloudinary" style="fillColor=#a20025;strokeColor=#6F0000;fontColor=#ffffff;fontSize=15;" parent="KT0k6_RB1WQHjz7tz0Gw-76" vertex="1">
          <mxGeometry x="426" y="573" width="136" height="54" as="geometry" />
        </mxCell>
        <mxCell id="KT0k6_RB1WQHjz7tz0Gw-41" value="HTTP Requests" style="curved=1;startArrow=circle;startFill=0;endArrow=circle;endFill=0;exitX=0.22;exitY=1;entryX=0.5;entryY=0.01;rounded=0;fontSize=13;flowAnimation=1;" parent="KT0k6_RB1WQHjz7tz0Gw-76" source="KT0k6_RB1WQHjz7tz0Gw-34" target="KT0k6_RB1WQHjz7tz0Gw-35" edge="1">
          <mxGeometry relative="1" as="geometry">
            <Array as="points">
              <mxPoint x="213" y="180" />
            </Array>
          </mxGeometry>
        </mxCell>
        <mxCell id="KT0k6_RB1WQHjz7tz0Gw-42" value="" style="curved=1;startArrow=none;endArrow=circle;endFill=0;exitX=0.5;exitY=1.01;entryX=0.5;entryY=0;rounded=0;fontSize=13;flowAnimation=1;" parent="KT0k6_RB1WQHjz7tz0Gw-76" source="KT0k6_RB1WQHjz7tz0Gw-35" target="KT0k6_RB1WQHjz7tz0Gw-36" edge="1">
          <mxGeometry relative="1" as="geometry">
            <Array as="points" />
          </mxGeometry>
        </mxCell>
        <mxCell id="KT0k6_RB1WQHjz7tz0Gw-43" value="" style="curved=1;startArrow=none;endArrow=circle;endFill=0;exitX=0.5;exitY=1;entryX=0.5;entryY=0;rounded=0;fontSize=13;flowAnimation=1;" parent="KT0k6_RB1WQHjz7tz0Gw-76" source="KT0k6_RB1WQHjz7tz0Gw-36" target="KT0k6_RB1WQHjz7tz0Gw-37" edge="1">
          <mxGeometry relative="1" as="geometry">
            <Array as="points" />
          </mxGeometry>
        </mxCell>
        <mxCell id="KT0k6_RB1WQHjz7tz0Gw-44" value="" style="curved=1;startArrow=none;endArrow=circle;endFill=0;exitX=1;exitY=0.85;entryX=0.25;entryY=0;rounded=0;" parent="KT0k6_RB1WQHjz7tz0Gw-76" source="KT0k6_RB1WQHjz7tz0Gw-36" target="KT0k6_RB1WQHjz7tz0Gw-38" edge="1">
          <mxGeometry relative="1" as="geometry">
            <Array as="points">
              <mxPoint x="361" y="422" />
            </Array>
          </mxGeometry>
        </mxCell>
        <mxCell id="KT0k6_RB1WQHjz7tz0Gw-45" value="Database operations" style="curved=1;startArrow=none;endArrow=circle;endFill=0;exitX=0;exitY=1;entryX=0.34;entryY=0;rounded=0;fontSize=13;flowAnimation=1;" parent="KT0k6_RB1WQHjz7tz0Gw-76" source="KT0k6_RB1WQHjz7tz0Gw-38" target="KT0k6_RB1WQHjz7tz0Gw-39" edge="1">
          <mxGeometry relative="1" as="geometry">
            <Array as="points">
              <mxPoint x="266" y="537" />
            </Array>
          </mxGeometry>
        </mxCell>
        <mxCell id="KT0k6_RB1WQHjz7tz0Gw-46" value="Image Upload" style="curved=1;startArrow=none;endArrow=circle;endFill=0;exitX=0.53;exitY=1;entryX=0.33;entryY=0;rounded=0;fontSize=13;flowAnimation=1;" parent="KT0k6_RB1WQHjz7tz0Gw-76" source="KT0k6_RB1WQHjz7tz0Gw-38" target="KT0k6_RB1WQHjz7tz0Gw-40" edge="1">
          <mxGeometry relative="1" as="geometry">
            <Array as="points">
              <mxPoint x="439" y="537" />
            </Array>
          </mxGeometry>
        </mxCell>
        <mxCell id="KT0k6_RB1WQHjz7tz0Gw-47" value="Image URL" style="curved=1;startArrow=none;endArrow=block;exitX=0.68;exitY=0;entryX=0.87;entryY=1;rounded=0;fontSize=13;flowAnimation=1;" parent="KT0k6_RB1WQHjz7tz0Gw-76" source="KT0k6_RB1WQHjz7tz0Gw-40" target="KT0k6_RB1WQHjz7tz0Gw-38" edge="1">
          <mxGeometry relative="1" as="geometry">
            <Array as="points">
              <mxPoint x="550" y="537" />
            </Array>
          </mxGeometry>
        </mxCell>
        <mxCell id="KT0k6_RB1WQHjz7tz0Gw-48" value="" style="curved=1;startArrow=none;endArrow=block;exitX=0.69;exitY=0;entryX=0.32;entryY=1;rounded=0;fontSize=13;flowAnimation=1;" parent="KT0k6_RB1WQHjz7tz0Gw-76" source="KT0k6_RB1WQHjz7tz0Gw-39" target="KT0k6_RB1WQHjz7tz0Gw-38" edge="1">
          <mxGeometry relative="1" as="geometry">
            <Array as="points">
              <mxPoint x="368" y="537" />
            </Array>
          </mxGeometry>
        </mxCell>
        <mxCell id="KT0k6_RB1WQHjz7tz0Gw-49" value="Response" style="curved=1;startArrow=none;endArrow=block;exitX=0.58;exitY=0;entryX=1;entryY=0.98;rounded=0;fontSize=13;flowAnimation=1;" parent="KT0k6_RB1WQHjz7tz0Gw-76" source="KT0k6_RB1WQHjz7tz0Gw-38" target="KT0k6_RB1WQHjz7tz0Gw-34" edge="1">
          <mxGeometry relative="1" as="geometry">
            <Array as="points">
              <mxPoint x="449" y="422" />
              <mxPoint x="449" y="180" />
            </Array>
          </mxGeometry>
        </mxCell>
        <mxCell id="KT0k6_RB1WQHjz7tz0Gw-250" value="BlockController Flowchart" style="swimlane;whiteSpace=wrap;html=1;startSize=100;fontSize=40;" parent="1" vertex="1">
          <mxGeometry x="-1020" y="820" width="2330" height="1930" as="geometry" />
        </mxCell>
        <mxCell id="KT0k6_RB1WQHjz7tz0Gw-219" value="Client" style="fontStyle=1;fontSize=17;" parent="KT0k6_RB1WQHjz7tz0Gw-250" vertex="1">
          <mxGeometry x="1210" y="150" width="103" height="54" as="geometry" />
        </mxCell>
        <mxCell id="KT0k6_RB1WQHjz7tz0Gw-220" value="Routes" style="fontStyle=1;fontSize=17;" parent="KT0k6_RB1WQHjz7tz0Gw-250" vertex="1">
          <mxGeometry x="1220" y="440" width="108" height="54" as="geometry" />
        </mxCell>
        <mxCell id="KT0k6_RB1WQHjz7tz0Gw-222" value="Create Blog Controller" style="fontStyle=1;fontSize=17;" parent="KT0k6_RB1WQHjz7tz0Gw-250" vertex="1">
          <mxGeometry x="1120" y="1090" width="220" height="54" as="geometry" />
        </mxCell>
        <mxCell id="KT0k6_RB1WQHjz7tz0Gw-223" value="MongoDB" style="fontStyle=1;fontSize=17;" parent="KT0k6_RB1WQHjz7tz0Gw-250" vertex="1">
          <mxGeometry x="650" y="1810" width="124" height="54" as="geometry" />
        </mxCell>
        <mxCell id="KT0k6_RB1WQHjz7tz0Gw-224" value="Cloudinary" style="fontStyle=1;fontSize=17;" parent="KT0k6_RB1WQHjz7tz0Gw-250" vertex="1">
          <mxGeometry x="1410" y="1810" width="136" height="54" as="geometry" />
        </mxCell>
        <mxCell id="KT0k6_RB1WQHjz7tz0Gw-225" value="Get All Blogs Controller" style="fontStyle=1;fontSize=17;" parent="KT0k6_RB1WQHjz7tz0Gw-250" vertex="1">
          <mxGeometry x="300" y="1090" width="228" height="54" as="geometry" />
        </mxCell>
        <mxCell id="KT0k6_RB1WQHjz7tz0Gw-226" value="Get One Blog Controller" style="fontStyle=1;fontSize=17;" parent="KT0k6_RB1WQHjz7tz0Gw-250" vertex="1">
          <mxGeometry x="670" y="1100" width="231" height="54" as="geometry" />
        </mxCell>
        <mxCell id="KT0k6_RB1WQHjz7tz0Gw-227" value="Delete Blog Controller" style="fontStyle=1;fontSize=17;" parent="KT0k6_RB1WQHjz7tz0Gw-250" vertex="1">
          <mxGeometry x="1430" y="1090" width="220" height="54" as="geometry" />
        </mxCell>
        <mxCell id="KT0k6_RB1WQHjz7tz0Gw-228" value="Request" style="curved=1;startArrow=circle;startFill=0;endArrow=circle;endFill=0;exitX=0.25;exitY=1;entryX=0.49;entryY=0.01;rounded=0;exitDx=0;exitDy=0;fontSize=14;flowAnimation=1;" parent="KT0k6_RB1WQHjz7tz0Gw-250" source="KT0k6_RB1WQHjz7tz0Gw-219" target="KT0k6_RB1WQHjz7tz0Gw-220" edge="1">
          <mxGeometry relative="1" as="geometry">
            <Array as="points">
              <mxPoint x="1230" y="380" />
            </Array>
          </mxGeometry>
        </mxCell>
        <mxCell id="KT0k6_RB1WQHjz7tz0Gw-229" value="POST /add-blog_post" style="curved=1;startArrow=none;endArrow=circle;endFill=0;exitX=0.99;exitY=0.91;rounded=0;fontSize=14;fontStyle=2;labelBackgroundColor=#66FFFF;" parent="KT0k6_RB1WQHjz7tz0Gw-250" source="KT0k6_RB1WQHjz7tz0Gw-220" target="HenniLSoXsfhwOg_Bu_--5" edge="1">
          <mxGeometry relative="1" as="geometry">
            <Array as="points">
              <mxPoint x="1296" y="587" />
            </Array>
            <mxPoint x="1295.5" y="623" as="targetPoint" />
          </mxGeometry>
        </mxCell>
        <mxCell id="KT0k6_RB1WQHjz7tz0Gw-230" value="" style="curved=1;startArrow=none;endArrow=circle;endFill=0;entryX=0.4;entryY=0;rounded=0;fontSize=14;exitX=0.412;exitY=1;exitDx=0;exitDy=0;exitPerimeter=0;" parent="KT0k6_RB1WQHjz7tz0Gw-250" source="HenniLSoXsfhwOg_Bu_--5" target="KT0k6_RB1WQHjz7tz0Gw-222" edge="1">
          <mxGeometry relative="1" as="geometry">
            <Array as="points">
              <mxPoint x="1296" y="713" />
            </Array>
            <mxPoint x="1296" y="677" as="sourcePoint" />
          </mxGeometry>
        </mxCell>
        <mxCell id="KT0k6_RB1WQHjz7tz0Gw-231" value="Save blog" style="curved=1;startArrow=none;endArrow=circle;endFill=0;exitX=0.24;exitY=1;entryX=0.5;entryY=0;rounded=0;strokeColor=default;entryDx=0;entryDy=0;fontSize=14;" parent="KT0k6_RB1WQHjz7tz0Gw-250" source="KT0k6_RB1WQHjz7tz0Gw-222" target="KT0k6_RB1WQHjz7tz0Gw-223" edge="1">
          <mxGeometry x="0.0137" y="34" relative="1" as="geometry">
            <Array as="points">
              <mxPoint x="900" y="1350" />
            </Array>
            <mxPoint as="offset" />
          </mxGeometry>
        </mxCell>
        <mxCell id="KT0k6_RB1WQHjz7tz0Gw-232" value="Upload image" style="curved=1;startArrow=none;endArrow=circle;endFill=0;exitX=0.822;exitY=0.987;entryX=0.1;entryY=0.01;rounded=0;fontSize=14;exitDx=0;exitDy=0;exitPerimeter=0;" parent="KT0k6_RB1WQHjz7tz0Gw-250" source="HenniLSoXsfhwOg_Bu_--5" target="KT0k6_RB1WQHjz7tz0Gw-224" edge="1">
          <mxGeometry x="0.3999" y="9" relative="1" as="geometry">
            <Array as="points">
              <mxPoint x="1410" y="1090" />
              <mxPoint x="1400" y="1510" />
            </Array>
            <mxPoint y="1" as="offset" />
            <mxPoint x="1369.9980000000005" y="676.2440000000001" as="sourcePoint" />
          </mxGeometry>
        </mxCell>
        <mxCell id="KT0k6_RB1WQHjz7tz0Gw-233" value="Response" style="curved=1;startArrow=none;endArrow=block;exitX=0.64;exitY=-0.01;entryX=0.55;entryY=1;rounded=0;fontSize=14;flowAnimation=1;" parent="KT0k6_RB1WQHjz7tz0Gw-250" source="KT0k6_RB1WQHjz7tz0Gw-223" target="KT0k6_RB1WQHjz7tz0Gw-222" edge="1">
          <mxGeometry relative="1" as="geometry">
            <Array as="points">
              <mxPoint x="1000" y="1440" />
            </Array>
          </mxGeometry>
        </mxCell>
        <mxCell id="KT0k6_RB1WQHjz7tz0Gw-234" value="Send Response" style="curved=1;startArrow=none;endArrow=block;exitX=0.7;exitY=0;entryX=0.66;entryY=1;rounded=0;sketch=1;curveFitting=1;jiggle=2;fontStyle=5;fontSize=14;" parent="KT0k6_RB1WQHjz7tz0Gw-250" source="KT0k6_RB1WQHjz7tz0Gw-222" target="KT0k6_RB1WQHjz7tz0Gw-219" edge="1">
          <mxGeometry x="-0.3598" y="16" relative="1" as="geometry">
            <Array as="points">
              <mxPoint x="1510" y="730" />
              <mxPoint x="1447" y="460" />
            </Array>
            <mxPoint as="offset" />
          </mxGeometry>
        </mxCell>
        <mxCell id="KT0k6_RB1WQHjz7tz0Gw-235" value="GET /get-blog_posts" style="curved=1;startArrow=none;endArrow=circle;endFill=0;exitX=0;exitY=0.65;entryX=0.19;entryY=0;rounded=0;fontSize=14;fontStyle=2;labelBackgroundColor=#66FFFF;" parent="KT0k6_RB1WQHjz7tz0Gw-250" source="KT0k6_RB1WQHjz7tz0Gw-220" target="KT0k6_RB1WQHjz7tz0Gw-225" edge="1">
          <mxGeometry x="0.056" y="30" relative="1" as="geometry">
            <Array as="points">
              <mxPoint x="690" y="587" />
              <mxPoint x="510" y="880" />
            </Array>
            <mxPoint y="-1" as="offset" />
          </mxGeometry>
        </mxCell>
        <mxCell id="KT0k6_RB1WQHjz7tz0Gw-236" value="Fetch all blogs" style="curved=1;startArrow=none;endArrow=block;exitX=0.439;exitY=1.111;entryX=0;entryY=0.25;rounded=0;entryDx=0;entryDy=0;exitDx=0;exitDy=0;exitPerimeter=0;fontSize=14;" parent="KT0k6_RB1WQHjz7tz0Gw-250" source="KT0k6_RB1WQHjz7tz0Gw-225" target="KT0k6_RB1WQHjz7tz0Gw-223" edge="1">
          <mxGeometry relative="1" as="geometry">
            <Array as="points">
              <mxPoint x="440" y="1370" />
            </Array>
          </mxGeometry>
        </mxCell>
        <mxCell id="KT0k6_RB1WQHjz7tz0Gw-237" value="Response with blogs" style="curved=1;startArrow=none;endArrow=block;exitX=0;exitY=0.63;entryX=0.25;entryY=1;rounded=0;entryDx=0;entryDy=0;fontSize=14;flowAnimation=1;" parent="KT0k6_RB1WQHjz7tz0Gw-250" source="KT0k6_RB1WQHjz7tz0Gw-223" target="KT0k6_RB1WQHjz7tz0Gw-225" edge="1">
          <mxGeometry x="0.6149" y="-55" relative="1" as="geometry">
            <Array as="points">
              <mxPoint x="250" y="1390" />
            </Array>
            <mxPoint as="offset" />
          </mxGeometry>
        </mxCell>
        <mxCell id="KT0k6_RB1WQHjz7tz0Gw-238" value="Send Response" style="curved=1;startArrow=none;endArrow=block;exitX=0;exitY=0;entryX=0;entryY=0.65;rounded=0;exitDx=0;exitDy=0;sketch=1;curveFitting=1;jiggle=2;fontStyle=5;fontSize=13;" parent="KT0k6_RB1WQHjz7tz0Gw-250" source="KT0k6_RB1WQHjz7tz0Gw-225" target="KT0k6_RB1WQHjz7tz0Gw-219" edge="1">
          <mxGeometry relative="1" as="geometry">
            <Array as="points">
              <mxPoint x="190" y="680" />
              <mxPoint x="1006" y="460" />
            </Array>
          </mxGeometry>
        </mxCell>
        <mxCell id="KT0k6_RB1WQHjz7tz0Gw-239" value="GET /get-one-blog_post" style="curved=1;startArrow=none;endArrow=circle;endFill=0;exitX=0.39;exitY=1.01;entryX=0.02;entryY=0;rounded=0;fontSize=14;fontStyle=2;labelBackgroundColor=#66FFFF;" parent="KT0k6_RB1WQHjz7tz0Gw-250" source="KT0k6_RB1WQHjz7tz0Gw-220" target="KT0k6_RB1WQHjz7tz0Gw-226" edge="1">
          <mxGeometry relative="1" as="geometry">
            <Array as="points">
              <mxPoint x="1113" y="587" />
              <mxPoint x="760" y="840" />
            </Array>
          </mxGeometry>
        </mxCell>
        <mxCell id="KT0k6_RB1WQHjz7tz0Gw-240" value="Find blog by ID" style="curved=1;startArrow=none;endArrow=block;exitX=0.5;exitY=1;entryX=0.368;entryY=-0.01;rounded=0;exitDx=0;exitDy=0;entryDx=0;entryDy=0;entryPerimeter=0;fontSize=14;" parent="KT0k6_RB1WQHjz7tz0Gw-250" source="KT0k6_RB1WQHjz7tz0Gw-226" target="KT0k6_RB1WQHjz7tz0Gw-223" edge="1">
          <mxGeometry x="0.0013" y="65" relative="1" as="geometry">
            <Array as="points">
              <mxPoint x="670" y="1360" />
            </Array>
            <mxPoint as="offset" />
          </mxGeometry>
        </mxCell>
        <mxCell id="KT0k6_RB1WQHjz7tz0Gw-241" value="Response with blog" style="curved=1;startArrow=none;endArrow=block;exitX=0.25;exitY=0;entryX=0.057;entryY=0.99;rounded=0;entryDx=0;entryDy=0;entryPerimeter=0;exitDx=0;exitDy=0;fontSize=14;flowAnimation=1;" parent="KT0k6_RB1WQHjz7tz0Gw-250" source="KT0k6_RB1WQHjz7tz0Gw-223" target="KT0k6_RB1WQHjz7tz0Gw-226" edge="1">
          <mxGeometry x="0.4744" y="-57" relative="1" as="geometry">
            <Array as="points">
              <mxPoint x="600" y="1240" />
            </Array>
            <mxPoint as="offset" />
          </mxGeometry>
        </mxCell>
        <mxCell id="KT0k6_RB1WQHjz7tz0Gw-242" value="Send Response" style="curved=1;startArrow=none;endArrow=block;exitX=0.84;exitY=0;entryX=1;entryY=0.9;rounded=0;sketch=1;curveFitting=1;jiggle=2;fontStyle=5;fontSize=13;" parent="KT0k6_RB1WQHjz7tz0Gw-250" source="KT0k6_RB1WQHjz7tz0Gw-226" target="KT0k6_RB1WQHjz7tz0Gw-219" edge="1">
          <mxGeometry x="0.06" y="47" relative="1" as="geometry">
            <Array as="points">
              <mxPoint x="1557" y="966" />
              <mxPoint x="1557" y="460" />
            </Array>
            <mxPoint as="offset" />
          </mxGeometry>
        </mxCell>
        <mxCell id="KT0k6_RB1WQHjz7tz0Gw-243" value="DELETE /delete-blog_post" style="curved=1;startArrow=none;endArrow=circle;endFill=0;exitX=0.99;exitY=0.62;entryX=0.1;entryY=0;rounded=0;fontSize=14;fontStyle=2;labelBackgroundColor=#66FFFF;" parent="KT0k6_RB1WQHjz7tz0Gw-250" source="KT0k6_RB1WQHjz7tz0Gw-220" target="KT0k6_RB1WQHjz7tz0Gw-227" edge="1">
          <mxGeometry relative="1" as="geometry">
            <Array as="points">
              <mxPoint x="1699" y="587" />
              <mxPoint x="1699" y="966" />
            </Array>
          </mxGeometry>
        </mxCell>
        <mxCell id="KT0k6_RB1WQHjz7tz0Gw-244" value="Find and delete blog" style="curved=1;startArrow=none;endArrow=block;exitX=0.377;exitY=1.021;entryX=1.01;entryY=0.6;rounded=0;exitDx=0;exitDy=0;exitPerimeter=0;fontSize=14;" parent="KT0k6_RB1WQHjz7tz0Gw-250" source="KT0k6_RB1WQHjz7tz0Gw-227" target="KT0k6_RB1WQHjz7tz0Gw-223" edge="1">
          <mxGeometry relative="1" as="geometry">
            <Array as="points">
              <mxPoint x="1460" y="1260" />
            </Array>
          </mxGeometry>
        </mxCell>
        <mxCell id="KT0k6_RB1WQHjz7tz0Gw-245" value="Return deleted blog data" style="curved=1;startArrow=none;endArrow=block;exitX=1.01;exitY=0.64;entryX=0.151;entryY=1.021;rounded=0;entryDx=0;entryDy=0;entryPerimeter=0;fontSize=14;flowAnimation=1;" parent="KT0k6_RB1WQHjz7tz0Gw-250" source="KT0k6_RB1WQHjz7tz0Gw-223" target="KT0k6_RB1WQHjz7tz0Gw-227" edge="1">
          <mxGeometry relative="1" as="geometry">
            <Array as="points">
              <mxPoint x="1370" y="1210" />
            </Array>
          </mxGeometry>
        </mxCell>
        <mxCell id="KT0k6_RB1WQHjz7tz0Gw-246" value="Delete image" style="curved=1;startArrow=none;endArrow=block;exitX=0.856;exitY=1.037;entryX=0.44;entryY=0.01;rounded=0;exitDx=0;exitDy=0;exitPerimeter=0;fontSize=14;" parent="KT0k6_RB1WQHjz7tz0Gw-250" source="KT0k6_RB1WQHjz7tz0Gw-227" target="KT0k6_RB1WQHjz7tz0Gw-224" edge="1">
          <mxGeometry relative="1" as="geometry">
            <Array as="points">
              <mxPoint x="1640" y="1190" />
            </Array>
          </mxGeometry>
        </mxCell>
        <mxCell id="KT0k6_RB1WQHjz7tz0Gw-247" value="Confirm deletion" style="curved=1;startArrow=none;endArrow=block;exitX=1;exitY=0.14;entryX=1;entryY=0.5;rounded=0;entryDx=0;entryDy=0;fontSize=14;flowAnimation=1;" parent="KT0k6_RB1WQHjz7tz0Gw-250" source="KT0k6_RB1WQHjz7tz0Gw-224" target="KT0k6_RB1WQHjz7tz0Gw-227" edge="1">
          <mxGeometry relative="1" as="geometry">
            <Array as="points">
              <mxPoint x="1970" y="1092" />
            </Array>
          </mxGeometry>
        </mxCell>
        <mxCell id="KT0k6_RB1WQHjz7tz0Gw-248" value="Send Response" style="curved=1;startArrow=none;endArrow=block;exitX=0.87;exitY=0;entryX=1;entryY=0.59;rounded=0;sketch=1;curveFitting=1;jiggle=2;fontStyle=5;fontSize=14;" parent="KT0k6_RB1WQHjz7tz0Gw-250" source="KT0k6_RB1WQHjz7tz0Gw-227" target="KT0k6_RB1WQHjz7tz0Gw-219" edge="1">
          <mxGeometry relative="1" as="geometry">
            <Array as="points">
              <mxPoint x="2094" y="966" />
              <mxPoint x="2094" y="460" />
            </Array>
          </mxGeometry>
        </mxCell>
        <mxCell id="HenniLSoXsfhwOg_Bu_--1" style="edgeStyle=orthogonalEdgeStyle;rounded=0;orthogonalLoop=1;jettySize=auto;html=1;exitX=0;exitY=0.5;exitDx=0;exitDy=0;entryX=0.609;entryY=1.052;entryDx=0;entryDy=0;entryPerimeter=0;curved=1;flowAnimation=1;strokeWidth=4;" edge="1" parent="KT0k6_RB1WQHjz7tz0Gw-250" source="KT0k6_RB1WQHjz7tz0Gw-224" target="HenniLSoXsfhwOg_Bu_--5">
          <mxGeometry relative="1" as="geometry">
            <mxPoint x="1332.556" y="676.136" as="targetPoint" />
            <Array as="points">
              <mxPoint x="1370" y="1837" />
              <mxPoint x="1370" y="1810" />
              <mxPoint x="1360" y="1810" />
              <mxPoint x="1360" y="690" />
              <mxPoint x="1334" y="690" />
            </Array>
          </mxGeometry>
        </mxCell>
        <mxCell id="HenniLSoXsfhwOg_Bu_--2" value="&lt;b&gt;&lt;font style=&quot;font-size: 14px;&quot;&gt;Image Url&lt;/font&gt;&lt;/b&gt;" style="edgeLabel;html=1;align=center;verticalAlign=middle;resizable=0;points=[];" vertex="1" connectable="0" parent="HenniLSoXsfhwOg_Bu_--1">
          <mxGeometry x="0.8901" y="1" relative="1" as="geometry">
            <mxPoint y="339" as="offset" />
          </mxGeometry>
        </mxCell>
        <mxCell id="HenniLSoXsfhwOg_Bu_--5" value="&lt;b&gt;&lt;font style=&quot;font-size: 15px;&quot;&gt;Multer Middleware&lt;/font&gt;&lt;/b&gt;" style="swimlane;fontStyle=0;childLayout=stackLayout;horizontal=1;startSize=30;horizontalStack=0;resizeParent=1;resizeParentMax=0;resizeLast=0;collapsible=1;marginBottom=0;whiteSpace=wrap;html=1;" vertex="1" collapsed="1" parent="KT0k6_RB1WQHjz7tz0Gw-250">
          <mxGeometry x="1230" y="640" width="170" height="30" as="geometry">
            <mxRectangle x="1230" y="640" width="140" height="120" as="alternateBounds" />
          </mxGeometry>
        </mxCell>
        <mxCell id="HenniLSoXsfhwOg_Bu_--6" value="sends img to cloudinary" style="text;strokeColor=none;fillColor=none;align=left;verticalAlign=middle;spacingLeft=4;spacingRight=4;overflow=hidden;points=[[0,0.5],[1,0.5]];portConstraint=eastwest;rotatable=0;whiteSpace=wrap;html=1;" vertex="1" parent="HenniLSoXsfhwOg_Bu_--5">
          <mxGeometry y="30" width="140" height="30" as="geometry" />
        </mxCell>
        <mxCell id="HenniLSoXsfhwOg_Bu_--7" value="Checks if Img url recieved" style="text;strokeColor=none;fillColor=none;align=left;verticalAlign=middle;spacingLeft=4;spacingRight=4;overflow=hidden;points=[[0,0.5],[1,0.5]];portConstraint=eastwest;rotatable=0;whiteSpace=wrap;html=1;" vertex="1" parent="HenniLSoXsfhwOg_Bu_--5">
          <mxGeometry y="60" width="140" height="30" as="geometry" />
        </mxCell>
        <mxCell id="HenniLSoXsfhwOg_Bu_--8" value="returns url" style="text;strokeColor=none;fillColor=none;align=left;verticalAlign=middle;spacingLeft=4;spacingRight=4;overflow=hidden;points=[[0,0.5],[1,0.5]];portConstraint=eastwest;rotatable=0;whiteSpace=wrap;html=1;" vertex="1" parent="HenniLSoXsfhwOg_Bu_--5">
          <mxGeometry y="90" width="140" height="30" as="geometry" />
        </mxCell>
        <mxCell id="KT0k6_RB1WQHjz7tz0Gw-252" value="BlogControllers" style="swimlane;whiteSpace=wrap;html=1;startSize=240;fontSize=90;" parent="1" vertex="1">
          <mxGeometry x="1610" y="270" width="3140" height="2480" as="geometry" />
        </mxCell>
        <mxCell id="KT0k6_RB1WQHjz7tz0Gw-65" value="&lt;h2&gt;&lt;font style=&quot;color: rgb(0, 0, 0);&quot;&gt;Post A Blog ( POST /&amp;nbsp;&lt;span style=&quot;font-family: Consolas, &amp;quot;Courier New&amp;quot;, monospace; white-space: pre;&quot;&gt;&lt;font style=&quot;&quot;&gt;api/blog/add-blog_post )&lt;/font&gt;&lt;/span&gt;&lt;/font&gt;&lt;/h2&gt;" style="swimlane;whiteSpace=wrap;html=1;startSize=80;fontSize=30;glass=0;" parent="KT0k6_RB1WQHjz7tz0Gw-252" vertex="1">
          <mxGeometry x="160" y="270" width="1350" height="1080" as="geometry" />
        </mxCell>
        <mxCell id="KT0k6_RB1WQHjz7tz0Gw-50" value="Client" style="shape=umlLifeline;perimeter=lifelinePerimeter;whiteSpace=wrap;container=1;dropTarget=0;collapsible=0;recursiveResize=0;outlineConnect=0;portConstraint=eastwest;newEdgeStyle={&quot;edgeStyle&quot;:&quot;elbowEdgeStyle&quot;,&quot;elbow&quot;:&quot;vertical&quot;,&quot;curved&quot;:0,&quot;rounded&quot;:0};size=65;rounded=0;shadow=1;strokeWidth=5;fontSize=15;fontStyle=1" parent="KT0k6_RB1WQHjz7tz0Gw-65" vertex="1">
          <mxGeometry x="90" y="210" width="150" height="592" as="geometry" />
        </mxCell>
        <mxCell id="KT0k6_RB1WQHjz7tz0Gw-51" value="Router" style="shape=umlLifeline;perimeter=lifelinePerimeter;whiteSpace=wrap;container=1;dropTarget=0;collapsible=0;recursiveResize=0;outlineConnect=0;portConstraint=eastwest;newEdgeStyle={&quot;edgeStyle&quot;:&quot;elbowEdgeStyle&quot;,&quot;elbow&quot;:&quot;vertical&quot;,&quot;curved&quot;:0,&quot;rounded&quot;:0};size=65;shadow=1;strokeWidth=5;fontSize=15;fontStyle=1" parent="KT0k6_RB1WQHjz7tz0Gw-65" vertex="1">
          <mxGeometry x="312" y="210" width="150" height="592" as="geometry" />
        </mxCell>
        <mxCell id="KT0k6_RB1WQHjz7tz0Gw-52" value="Middleware" style="shape=umlLifeline;perimeter=lifelinePerimeter;whiteSpace=wrap;container=1;dropTarget=0;collapsible=0;recursiveResize=0;outlineConnect=0;portConstraint=eastwest;newEdgeStyle={&quot;edgeStyle&quot;:&quot;elbowEdgeStyle&quot;,&quot;elbow&quot;:&quot;vertical&quot;,&quot;curved&quot;:0,&quot;rounded&quot;:0};size=65;shadow=1;strokeWidth=5;fontSize=15;fontStyle=1" parent="KT0k6_RB1WQHjz7tz0Gw-65" vertex="1">
          <mxGeometry x="512" y="210" width="150" height="592" as="geometry" />
        </mxCell>
        <mxCell id="KT0k6_RB1WQHjz7tz0Gw-53" value="Controller" style="shape=umlLifeline;perimeter=lifelinePerimeter;whiteSpace=wrap;container=1;dropTarget=0;collapsible=0;recursiveResize=0;outlineConnect=0;portConstraint=eastwest;newEdgeStyle={&quot;edgeStyle&quot;:&quot;elbowEdgeStyle&quot;,&quot;elbow&quot;:&quot;vertical&quot;,&quot;curved&quot;:0,&quot;rounded&quot;:0};size=65;shadow=1;strokeWidth=5;fontSize=15;fontStyle=1" parent="KT0k6_RB1WQHjz7tz0Gw-65" vertex="1">
          <mxGeometry x="712" y="210" width="150" height="592" as="geometry" />
        </mxCell>
        <mxCell id="KT0k6_RB1WQHjz7tz0Gw-54" value="Cloudinary" style="shape=umlLifeline;perimeter=lifelinePerimeter;whiteSpace=wrap;container=1;dropTarget=0;collapsible=0;recursiveResize=0;outlineConnect=0;portConstraint=eastwest;newEdgeStyle={&quot;edgeStyle&quot;:&quot;elbowEdgeStyle&quot;,&quot;elbow&quot;:&quot;vertical&quot;,&quot;curved&quot;:0,&quot;rounded&quot;:0};size=65;shadow=1;strokeWidth=5;fontSize=15;fontStyle=1" parent="KT0k6_RB1WQHjz7tz0Gw-65" vertex="1">
          <mxGeometry x="912" y="210" width="150" height="592" as="geometry" />
        </mxCell>
        <mxCell id="KT0k6_RB1WQHjz7tz0Gw-55" value="Database" style="shape=umlLifeline;perimeter=lifelinePerimeter;whiteSpace=wrap;container=1;dropTarget=0;collapsible=0;recursiveResize=0;outlineConnect=0;portConstraint=eastwest;newEdgeStyle={&quot;edgeStyle&quot;:&quot;elbowEdgeStyle&quot;,&quot;elbow&quot;:&quot;vertical&quot;,&quot;curved&quot;:0,&quot;rounded&quot;:0};size=65;shadow=0;glass=0;strokeWidth=5;fontSize=15;fontStyle=1" parent="KT0k6_RB1WQHjz7tz0Gw-65" vertex="1">
          <mxGeometry x="1112" y="210" width="150" height="592" as="geometry" />
        </mxCell>
        <mxCell id="KT0k6_RB1WQHjz7tz0Gw-56" value="POST /add-blog_post" style="verticalAlign=bottom;edgeStyle=elbowEdgeStyle;elbow=vertical;curved=0;rounded=0;endArrow=block;flowAnimation=1;strokeWidth=3;" parent="KT0k6_RB1WQHjz7tz0Gw-65" source="KT0k6_RB1WQHjz7tz0Gw-50" target="KT0k6_RB1WQHjz7tz0Gw-51" edge="1">
          <mxGeometry relative="1" as="geometry">
            <Array as="points">
              <mxPoint x="285" y="319" />
            </Array>
          </mxGeometry>
        </mxCell>
        <mxCell id="KT0k6_RB1WQHjz7tz0Gw-57" value="Handle file upload" style="verticalAlign=bottom;edgeStyle=elbowEdgeStyle;elbow=vertical;curved=0;rounded=0;endArrow=block;flowAnimation=1;strokeWidth=3;" parent="KT0k6_RB1WQHjz7tz0Gw-65" source="KT0k6_RB1WQHjz7tz0Gw-51" target="KT0k6_RB1WQHjz7tz0Gw-52" edge="1">
          <mxGeometry relative="1" as="geometry">
            <Array as="points">
              <mxPoint x="496" y="373" />
            </Array>
          </mxGeometry>
        </mxCell>
        <mxCell id="KT0k6_RB1WQHjz7tz0Gw-58" value="Pass request" style="verticalAlign=bottom;edgeStyle=elbowEdgeStyle;elbow=vertical;curved=0;rounded=0;endArrow=block;flowAnimation=1;strokeWidth=3;" parent="KT0k6_RB1WQHjz7tz0Gw-65" source="KT0k6_RB1WQHjz7tz0Gw-52" target="KT0k6_RB1WQHjz7tz0Gw-53" edge="1">
          <mxGeometry relative="1" as="geometry">
            <Array as="points">
              <mxPoint x="696" y="427" />
            </Array>
          </mxGeometry>
        </mxCell>
        <mxCell id="KT0k6_RB1WQHjz7tz0Gw-59" value="Upload image" style="verticalAlign=bottom;edgeStyle=elbowEdgeStyle;elbow=vertical;curved=0;rounded=0;endArrow=block;flowAnimation=1;strokeWidth=3;" parent="KT0k6_RB1WQHjz7tz0Gw-65" source="KT0k6_RB1WQHjz7tz0Gw-53" target="KT0k6_RB1WQHjz7tz0Gw-54" edge="1">
          <mxGeometry relative="1" as="geometry">
            <Array as="points">
              <mxPoint x="896" y="481" />
            </Array>
          </mxGeometry>
        </mxCell>
        <mxCell id="KT0k6_RB1WQHjz7tz0Gw-60" value="Return image URL" style="verticalAlign=bottom;edgeStyle=elbowEdgeStyle;elbow=vertical;curved=0;rounded=0;dashed=1;dashPattern=2 3;endArrow=block;flowAnimation=1;strokeWidth=3;" parent="KT0k6_RB1WQHjz7tz0Gw-65" source="KT0k6_RB1WQHjz7tz0Gw-54" target="KT0k6_RB1WQHjz7tz0Gw-53" edge="1">
          <mxGeometry relative="1" as="geometry">
            <Array as="points">
              <mxPoint x="899" y="535" />
            </Array>
          </mxGeometry>
        </mxCell>
        <mxCell id="KT0k6_RB1WQHjz7tz0Gw-61" value="Save blog post" style="verticalAlign=bottom;edgeStyle=elbowEdgeStyle;elbow=vertical;curved=0;rounded=0;endArrow=block;flowAnimation=1;strokeWidth=3;" parent="KT0k6_RB1WQHjz7tz0Gw-65" source="KT0k6_RB1WQHjz7tz0Gw-53" target="KT0k6_RB1WQHjz7tz0Gw-55" edge="1">
          <mxGeometry relative="1" as="geometry">
            <Array as="points">
              <mxPoint x="996" y="589" />
            </Array>
          </mxGeometry>
        </mxCell>
        <mxCell id="KT0k6_RB1WQHjz7tz0Gw-62" value="Confirm save" style="verticalAlign=bottom;edgeStyle=elbowEdgeStyle;elbow=vertical;curved=0;rounded=0;dashed=1;dashPattern=2 3;endArrow=block;flowAnimation=1;strokeWidth=3;" parent="KT0k6_RB1WQHjz7tz0Gw-65" source="KT0k6_RB1WQHjz7tz0Gw-55" target="KT0k6_RB1WQHjz7tz0Gw-53" edge="1">
          <mxGeometry relative="1" as="geometry">
            <Array as="points">
              <mxPoint x="999" y="643" />
            </Array>
          </mxGeometry>
        </mxCell>
        <mxCell id="KT0k6_RB1WQHjz7tz0Gw-63" value="Response" style="verticalAlign=bottom;edgeStyle=elbowEdgeStyle;elbow=vertical;curved=0;rounded=0;dashed=1;dashPattern=2 3;endArrow=block;flowAnimation=1;strokeWidth=3;" parent="KT0k6_RB1WQHjz7tz0Gw-65" source="KT0k6_RB1WQHjz7tz0Gw-53" target="KT0k6_RB1WQHjz7tz0Gw-50" edge="1">
          <mxGeometry relative="1" as="geometry">
            <Array as="points">
              <mxPoint x="488" y="697" />
            </Array>
          </mxGeometry>
        </mxCell>
        <mxCell id="KT0k6_RB1WQHjz7tz0Gw-64" value="Backend" style="rounded=0;whiteSpace=wrap;html=1;fontStyle=1;fontSize=20;fillColor=#1ba1e2;fontColor=#ffffff;strokeColor=#006EAF;" parent="KT0k6_RB1WQHjz7tz0Gw-65" vertex="1">
          <mxGeometry x="105" y="802" width="1175" height="60" as="geometry" />
        </mxCell>
        <mxCell id="KT0k6_RB1WQHjz7tz0Gw-70" value="DESCRIPTION" style="swimlane;fontStyle=1;childLayout=stackLayout;horizontal=1;startSize=30;horizontalStack=0;resizeParent=1;resizeParentMax=0;resizeLast=0;collapsible=1;marginBottom=0;whiteSpace=wrap;html=1;fontSize=25;" parent="KT0k6_RB1WQHjz7tz0Gw-65" vertex="1">
          <mxGeometry x="105" y="930" width="270" height="90" as="geometry" />
        </mxCell>
        <mxCell id="KT0k6_RB1WQHjz7tz0Gw-71" value="To upload a blog" style="text;strokeColor=none;fillColor=none;align=left;verticalAlign=middle;spacingLeft=4;spacingRight=4;overflow=hidden;points=[[0,0.5],[1,0.5]];portConstraint=eastwest;rotatable=0;whiteSpace=wrap;html=1;fontSize=20;" parent="KT0k6_RB1WQHjz7tz0Gw-70" vertex="1">
          <mxGeometry y="30" width="270" height="30" as="geometry" />
        </mxCell>
        <mxCell id="KT0k6_RB1WQHjz7tz0Gw-72" value="Response : blog submitted successfully" style="text;strokeColor=none;fillColor=none;align=left;verticalAlign=middle;spacingLeft=4;spacingRight=4;overflow=hidden;points=[[0,0.5],[1,0.5]];portConstraint=eastwest;rotatable=0;whiteSpace=wrap;html=1;fontSize=20;" parent="KT0k6_RB1WQHjz7tz0Gw-70" vertex="1">
          <mxGeometry y="60" width="270" height="30" as="geometry" />
        </mxCell>
        <mxCell id="KT0k6_RB1WQHjz7tz0Gw-74" value="&lt;b&gt;&lt;font style=&quot;font-size: 30px;&quot;&gt;Sequence Diagram&lt;/font&gt;&lt;/b&gt;" style="text;html=1;align=center;verticalAlign=middle;resizable=0;points=[];autosize=1;strokeColor=none;fillColor=none;" parent="KT0k6_RB1WQHjz7tz0Gw-65" vertex="1">
          <mxGeometry x="530" y="140" width="290" height="50" as="geometry" />
        </mxCell>
        <mxCell id="KT0k6_RB1WQHjz7tz0Gw-77" value="&lt;h2&gt;&lt;font style=&quot;color: rgb(0, 0, 0);&quot;&gt;Get All Blogs ( GET /&amp;nbsp;&lt;span style=&quot;font-family: Consolas, &amp;quot;Courier New&amp;quot;, monospace; white-space: pre;&quot;&gt;&lt;font style=&quot;&quot;&gt;api/blog/get-blog-posts )&lt;/font&gt;&lt;/span&gt;&lt;/font&gt;&lt;/h2&gt;" style="swimlane;whiteSpace=wrap;html=1;startSize=80;fontSize=30;glass=0;" parent="KT0k6_RB1WQHjz7tz0Gw-252" vertex="1">
          <mxGeometry x="160" y="1487" width="1120" height="853" as="geometry" />
        </mxCell>
        <mxCell id="KT0k6_RB1WQHjz7tz0Gw-93" value="DESCRIPTION" style="swimlane;fontStyle=1;childLayout=stackLayout;horizontal=1;startSize=30;horizontalStack=0;resizeParent=1;resizeParentMax=0;resizeLast=0;collapsible=1;marginBottom=0;whiteSpace=wrap;html=1;fontSize=25;" parent="KT0k6_RB1WQHjz7tz0Gw-77" vertex="1">
          <mxGeometry x="70" y="733" width="540" height="90" as="geometry" />
        </mxCell>
        <mxCell id="KT0k6_RB1WQHjz7tz0Gw-94" value="To get data of all blogs" style="text;strokeColor=none;fillColor=none;align=left;verticalAlign=middle;spacingLeft=4;spacingRight=4;overflow=hidden;points=[[0,0.5],[1,0.5]];portConstraint=eastwest;rotatable=0;whiteSpace=wrap;html=1;fontSize=20;" parent="KT0k6_RB1WQHjz7tz0Gw-93" vertex="1">
          <mxGeometry y="30" width="540" height="30" as="geometry" />
        </mxCell>
        <mxCell id="KT0k6_RB1WQHjz7tz0Gw-95" value="Response : blogs have been fetched, blogArray[ ]" style="text;strokeColor=none;fillColor=none;align=left;verticalAlign=middle;spacingLeft=4;spacingRight=4;overflow=hidden;points=[[0,0.5],[1,0.5]];portConstraint=eastwest;rotatable=0;whiteSpace=wrap;html=1;fontSize=20;" parent="KT0k6_RB1WQHjz7tz0Gw-93" vertex="1">
          <mxGeometry y="60" width="540" height="30" as="geometry" />
        </mxCell>
        <mxCell id="KT0k6_RB1WQHjz7tz0Gw-96" value="&lt;b&gt;&lt;font style=&quot;font-size: 30px;&quot;&gt;Sequence Diagram&lt;/font&gt;&lt;/b&gt;" style="text;html=1;align=center;verticalAlign=middle;resizable=0;points=[];autosize=1;strokeColor=none;fillColor=none;" parent="KT0k6_RB1WQHjz7tz0Gw-77" vertex="1">
          <mxGeometry x="350" y="140" width="290" height="50" as="geometry" />
        </mxCell>
        <mxCell id="KT0k6_RB1WQHjz7tz0Gw-97" value="Client" style="shape=umlLifeline;perimeter=lifelinePerimeter;whiteSpace=wrap;container=1;dropTarget=0;collapsible=0;recursiveResize=0;outlineConnect=0;portConstraint=eastwest;newEdgeStyle={&quot;edgeStyle&quot;:&quot;elbowEdgeStyle&quot;,&quot;elbow&quot;:&quot;vertical&quot;,&quot;curved&quot;:0,&quot;rounded&quot;:0};size=65;fontStyle=1;fontSize=15;strokeWidth=4;" parent="KT0k6_RB1WQHjz7tz0Gw-77" vertex="1">
          <mxGeometry x="100" y="190" width="150" height="430" as="geometry" />
        </mxCell>
        <mxCell id="KT0k6_RB1WQHjz7tz0Gw-98" value="Router" style="shape=umlLifeline;perimeter=lifelinePerimeter;whiteSpace=wrap;container=1;dropTarget=0;collapsible=0;recursiveResize=0;outlineConnect=0;portConstraint=eastwest;newEdgeStyle={&quot;edgeStyle&quot;:&quot;elbowEdgeStyle&quot;,&quot;elbow&quot;:&quot;vertical&quot;,&quot;curved&quot;:0,&quot;rounded&quot;:0};size=65;fontStyle=1;fontSize=15;strokeWidth=4;" parent="KT0k6_RB1WQHjz7tz0Gw-77" vertex="1">
          <mxGeometry x="314" y="190" width="150" height="430" as="geometry" />
        </mxCell>
        <mxCell id="KT0k6_RB1WQHjz7tz0Gw-99" value="Controller" style="shape=umlLifeline;perimeter=lifelinePerimeter;whiteSpace=wrap;container=1;dropTarget=0;collapsible=0;recursiveResize=0;outlineConnect=0;portConstraint=eastwest;newEdgeStyle={&quot;edgeStyle&quot;:&quot;elbowEdgeStyle&quot;,&quot;elbow&quot;:&quot;vertical&quot;,&quot;curved&quot;:0,&quot;rounded&quot;:0};size=65;fontStyle=1;fontSize=15;strokeWidth=4;" parent="KT0k6_RB1WQHjz7tz0Gw-77" vertex="1">
          <mxGeometry x="514" y="190" width="150" height="430" as="geometry" />
        </mxCell>
        <mxCell id="KT0k6_RB1WQHjz7tz0Gw-100" value="Database" style="shape=umlLifeline;perimeter=lifelinePerimeter;whiteSpace=wrap;container=1;dropTarget=0;collapsible=0;recursiveResize=0;outlineConnect=0;portConstraint=eastwest;newEdgeStyle={&quot;edgeStyle&quot;:&quot;elbowEdgeStyle&quot;,&quot;elbow&quot;:&quot;vertical&quot;,&quot;curved&quot;:0,&quot;rounded&quot;:0};size=65;fontStyle=1;fontSize=15;strokeWidth=4;" parent="KT0k6_RB1WQHjz7tz0Gw-77" vertex="1">
          <mxGeometry x="714" y="190" width="150" height="430" as="geometry" />
        </mxCell>
        <mxCell id="KT0k6_RB1WQHjz7tz0Gw-101" value="GET /get-blog_posts" style="verticalAlign=bottom;edgeStyle=elbowEdgeStyle;elbow=vertical;curved=0;rounded=0;endArrow=block;strokeWidth=3;flowAnimation=1;" parent="KT0k6_RB1WQHjz7tz0Gw-77" source="KT0k6_RB1WQHjz7tz0Gw-97" target="KT0k6_RB1WQHjz7tz0Gw-98" edge="1">
          <mxGeometry relative="1" as="geometry">
            <Array as="points">
              <mxPoint x="291" y="299" />
            </Array>
          </mxGeometry>
        </mxCell>
        <mxCell id="KT0k6_RB1WQHjz7tz0Gw-102" value="Call getAllBlogs()" style="verticalAlign=bottom;edgeStyle=elbowEdgeStyle;elbow=vertical;curved=0;rounded=0;endArrow=block;strokeWidth=3;flowAnimation=1;" parent="KT0k6_RB1WQHjz7tz0Gw-77" source="KT0k6_RB1WQHjz7tz0Gw-98" target="KT0k6_RB1WQHjz7tz0Gw-99" edge="1">
          <mxGeometry relative="1" as="geometry">
            <Array as="points">
              <mxPoint x="498" y="353" />
            </Array>
          </mxGeometry>
        </mxCell>
        <mxCell id="KT0k6_RB1WQHjz7tz0Gw-103" value="Fetch all blogs" style="verticalAlign=bottom;edgeStyle=elbowEdgeStyle;elbow=vertical;curved=0;rounded=0;endArrow=block;strokeWidth=3;flowAnimation=1;" parent="KT0k6_RB1WQHjz7tz0Gw-77" source="KT0k6_RB1WQHjz7tz0Gw-99" target="KT0k6_RB1WQHjz7tz0Gw-100" edge="1">
          <mxGeometry relative="1" as="geometry">
            <Array as="points">
              <mxPoint x="698" y="407" />
            </Array>
          </mxGeometry>
        </mxCell>
        <mxCell id="KT0k6_RB1WQHjz7tz0Gw-104" value="Return blogs array" style="verticalAlign=bottom;edgeStyle=elbowEdgeStyle;elbow=vertical;curved=0;rounded=0;dashed=1;dashPattern=2 3;endArrow=block;strokeWidth=3;flowAnimation=1;" parent="KT0k6_RB1WQHjz7tz0Gw-77" source="KT0k6_RB1WQHjz7tz0Gw-100" target="KT0k6_RB1WQHjz7tz0Gw-99" edge="1">
          <mxGeometry relative="1" as="geometry">
            <Array as="points">
              <mxPoint x="701" y="461" />
            </Array>
          </mxGeometry>
        </mxCell>
        <mxCell id="KT0k6_RB1WQHjz7tz0Gw-105" value="Response with blogs array" style="verticalAlign=bottom;edgeStyle=elbowEdgeStyle;elbow=vertical;curved=0;rounded=0;dashed=1;dashPattern=2 3;endArrow=block;strokeWidth=3;flowAnimation=1;" parent="KT0k6_RB1WQHjz7tz0Gw-77" source="KT0k6_RB1WQHjz7tz0Gw-99" target="KT0k6_RB1WQHjz7tz0Gw-97" edge="1">
          <mxGeometry relative="1" as="geometry">
            <Array as="points">
              <mxPoint x="394" y="515" />
            </Array>
          </mxGeometry>
        </mxCell>
        <mxCell id="KT0k6_RB1WQHjz7tz0Gw-106" value="Backend" style="rounded=0;whiteSpace=wrap;html=1;fontStyle=1;fontSize=20;fillColor=#1ba1e2;fontColor=#ffffff;strokeColor=#006EAF;" parent="KT0k6_RB1WQHjz7tz0Gw-77" vertex="1">
          <mxGeometry x="70" y="620" width="850" height="60" as="geometry" />
        </mxCell>
        <mxCell id="KT0k6_RB1WQHjz7tz0Gw-172" value="&lt;h2&gt;&lt;font style=&quot;font-size: 40px;&quot;&gt;Get One Blog by ID (&lt;code style=&quot;&quot;&gt;GET /get-one-blog_post&lt;/code&gt;)&lt;/font&gt;&lt;/h2&gt;" style="swimlane;whiteSpace=wrap;html=1;startSize=80;fontSize=30;glass=0;" parent="KT0k6_RB1WQHjz7tz0Gw-252" vertex="1">
          <mxGeometry x="1380" y="1487" width="990" height="853" as="geometry" />
        </mxCell>
        <mxCell id="KT0k6_RB1WQHjz7tz0Gw-173" value="DESCRIPTION" style="swimlane;fontStyle=1;childLayout=stackLayout;horizontal=1;startSize=30;horizontalStack=0;resizeParent=1;resizeParentMax=0;resizeLast=0;collapsible=1;marginBottom=0;whiteSpace=wrap;html=1;fontSize=25;" parent="KT0k6_RB1WQHjz7tz0Gw-172" vertex="1">
          <mxGeometry x="70" y="733" width="540" height="90" as="geometry" />
        </mxCell>
        <mxCell id="KT0k6_RB1WQHjz7tz0Gw-174" value="To get data of a single blog" style="text;strokeColor=none;fillColor=none;align=left;verticalAlign=middle;spacingLeft=4;spacingRight=4;overflow=hidden;points=[[0,0.5],[1,0.5]];portConstraint=eastwest;rotatable=0;whiteSpace=wrap;html=1;fontSize=20;" parent="KT0k6_RB1WQHjz7tz0Gw-173" vertex="1">
          <mxGeometry y="30" width="540" height="30" as="geometry" />
        </mxCell>
        <mxCell id="KT0k6_RB1WQHjz7tz0Gw-175" value="Response : blog has been fetched successfully, blogData" style="text;strokeColor=none;fillColor=none;align=left;verticalAlign=middle;spacingLeft=4;spacingRight=4;overflow=hidden;points=[[0,0.5],[1,0.5]];portConstraint=eastwest;rotatable=0;whiteSpace=wrap;html=1;fontSize=20;" parent="KT0k6_RB1WQHjz7tz0Gw-173" vertex="1">
          <mxGeometry y="60" width="540" height="30" as="geometry" />
        </mxCell>
        <mxCell id="KT0k6_RB1WQHjz7tz0Gw-176" value="&lt;b&gt;&lt;font style=&quot;font-size: 30px;&quot;&gt;Sequence Diagram&lt;/font&gt;&lt;/b&gt;" style="text;html=1;align=center;verticalAlign=middle;resizable=0;points=[];autosize=1;strokeColor=none;fillColor=none;" parent="KT0k6_RB1WQHjz7tz0Gw-172" vertex="1">
          <mxGeometry x="350" y="140" width="290" height="50" as="geometry" />
        </mxCell>
        <mxCell id="KT0k6_RB1WQHjz7tz0Gw-177" value="Client" style="shape=umlLifeline;perimeter=lifelinePerimeter;whiteSpace=wrap;container=1;dropTarget=0;collapsible=0;recursiveResize=0;outlineConnect=0;portConstraint=eastwest;newEdgeStyle={&quot;edgeStyle&quot;:&quot;elbowEdgeStyle&quot;,&quot;elbow&quot;:&quot;vertical&quot;,&quot;curved&quot;:0,&quot;rounded&quot;:0};size=65;fontStyle=1;fontSize=15;strokeWidth=4;" parent="KT0k6_RB1WQHjz7tz0Gw-172" vertex="1">
          <mxGeometry x="100" y="190" width="150" height="430" as="geometry" />
        </mxCell>
        <mxCell id="KT0k6_RB1WQHjz7tz0Gw-178" value="Router" style="shape=umlLifeline;perimeter=lifelinePerimeter;whiteSpace=wrap;container=1;dropTarget=0;collapsible=0;recursiveResize=0;outlineConnect=0;portConstraint=eastwest;newEdgeStyle={&quot;edgeStyle&quot;:&quot;elbowEdgeStyle&quot;,&quot;elbow&quot;:&quot;vertical&quot;,&quot;curved&quot;:0,&quot;rounded&quot;:0};size=65;fontStyle=1;fontSize=15;strokeWidth=4;" parent="KT0k6_RB1WQHjz7tz0Gw-172" vertex="1">
          <mxGeometry x="314" y="190" width="150" height="430" as="geometry" />
        </mxCell>
        <mxCell id="KT0k6_RB1WQHjz7tz0Gw-179" value="Controller" style="shape=umlLifeline;perimeter=lifelinePerimeter;whiteSpace=wrap;container=1;dropTarget=0;collapsible=0;recursiveResize=0;outlineConnect=0;portConstraint=eastwest;newEdgeStyle={&quot;edgeStyle&quot;:&quot;elbowEdgeStyle&quot;,&quot;elbow&quot;:&quot;vertical&quot;,&quot;curved&quot;:0,&quot;rounded&quot;:0};size=65;fontStyle=1;fontSize=15;strokeWidth=4;" parent="KT0k6_RB1WQHjz7tz0Gw-172" vertex="1">
          <mxGeometry x="514" y="190" width="150" height="430" as="geometry" />
        </mxCell>
        <mxCell id="KT0k6_RB1WQHjz7tz0Gw-180" value="Database" style="shape=umlLifeline;perimeter=lifelinePerimeter;whiteSpace=wrap;container=1;dropTarget=0;collapsible=0;recursiveResize=0;outlineConnect=0;portConstraint=eastwest;newEdgeStyle={&quot;edgeStyle&quot;:&quot;elbowEdgeStyle&quot;,&quot;elbow&quot;:&quot;vertical&quot;,&quot;curved&quot;:0,&quot;rounded&quot;:0};size=65;fontStyle=1;fontSize=15;strokeWidth=4;" parent="KT0k6_RB1WQHjz7tz0Gw-172" vertex="1">
          <mxGeometry x="714" y="190" width="150" height="430" as="geometry" />
        </mxCell>
        <mxCell id="KT0k6_RB1WQHjz7tz0Gw-181" value="GET /get-one-blog_post?id=&lt;blog_id&gt;" style="verticalAlign=bottom;edgeStyle=elbowEdgeStyle;elbow=horizontal;curved=0;rounded=0;endArrow=block;strokeWidth=3;flowAnimation=1;labelBackgroundColor=none;fontSize=11;" parent="KT0k6_RB1WQHjz7tz0Gw-172" source="KT0k6_RB1WQHjz7tz0Gw-177" target="KT0k6_RB1WQHjz7tz0Gw-178" edge="1">
          <mxGeometry relative="1" as="geometry">
            <Array as="points">
              <mxPoint x="291" y="299" />
            </Array>
          </mxGeometry>
        </mxCell>
        <mxCell id="KT0k6_RB1WQHjz7tz0Gw-182" value="Call getOneBlog()" style="verticalAlign=bottom;edgeStyle=elbowEdgeStyle;elbow=vertical;curved=0;rounded=0;endArrow=block;strokeWidth=3;flowAnimation=1;labelBackgroundColor=none;" parent="KT0k6_RB1WQHjz7tz0Gw-172" source="KT0k6_RB1WQHjz7tz0Gw-178" target="KT0k6_RB1WQHjz7tz0Gw-179" edge="1">
          <mxGeometry relative="1" as="geometry">
            <Array as="points">
              <mxPoint x="498" y="353" />
            </Array>
          </mxGeometry>
        </mxCell>
        <mxCell id="KT0k6_RB1WQHjz7tz0Gw-183" value="Find blog by ID" style="verticalAlign=bottom;edgeStyle=elbowEdgeStyle;elbow=vertical;curved=0;rounded=0;endArrow=block;strokeWidth=3;flowAnimation=1;labelBackgroundColor=none;" parent="KT0k6_RB1WQHjz7tz0Gw-172" source="KT0k6_RB1WQHjz7tz0Gw-179" target="KT0k6_RB1WQHjz7tz0Gw-180" edge="1">
          <mxGeometry relative="1" as="geometry">
            <Array as="points">
              <mxPoint x="698" y="407" />
            </Array>
          </mxGeometry>
        </mxCell>
        <mxCell id="KT0k6_RB1WQHjz7tz0Gw-184" value="Return blog data" style="verticalAlign=bottom;edgeStyle=elbowEdgeStyle;elbow=vertical;curved=0;rounded=0;dashed=1;dashPattern=2 3;endArrow=block;strokeWidth=3;flowAnimation=1;" parent="KT0k6_RB1WQHjz7tz0Gw-172" source="KT0k6_RB1WQHjz7tz0Gw-180" target="KT0k6_RB1WQHjz7tz0Gw-179" edge="1">
          <mxGeometry relative="1" as="geometry">
            <Array as="points">
              <mxPoint x="701" y="461" />
            </Array>
          </mxGeometry>
        </mxCell>
        <mxCell id="KT0k6_RB1WQHjz7tz0Gw-185" value="Response with blog data" style="verticalAlign=bottom;edgeStyle=elbowEdgeStyle;elbow=vertical;curved=0;rounded=0;dashed=1;dashPattern=2 3;endArrow=block;strokeWidth=3;flowAnimation=1;" parent="KT0k6_RB1WQHjz7tz0Gw-172" source="KT0k6_RB1WQHjz7tz0Gw-179" target="KT0k6_RB1WQHjz7tz0Gw-177" edge="1">
          <mxGeometry relative="1" as="geometry">
            <Array as="points">
              <mxPoint x="394" y="515" />
            </Array>
          </mxGeometry>
        </mxCell>
        <mxCell id="KT0k6_RB1WQHjz7tz0Gw-186" value="Backend" style="rounded=0;whiteSpace=wrap;html=1;fontStyle=1;fontSize=20;fillColor=#1ba1e2;fontColor=#ffffff;strokeColor=#006EAF;" parent="KT0k6_RB1WQHjz7tz0Gw-172" vertex="1">
          <mxGeometry x="70" y="620" width="850" height="60" as="geometry" />
        </mxCell>
        <mxCell id="KT0k6_RB1WQHjz7tz0Gw-200" value="&lt;h2&gt;Delete One Blog by ID (&lt;code&gt;DELETE /delete-blog_post&lt;/code&gt;)&lt;br&gt;&lt;/h2&gt;" style="swimlane;whiteSpace=wrap;html=1;startSize=80;fontSize=30;glass=0;" parent="KT0k6_RB1WQHjz7tz0Gw-252" vertex="1">
          <mxGeometry x="1590" y="270" width="1360" height="1070" as="geometry" />
        </mxCell>
        <mxCell id="KT0k6_RB1WQHjz7tz0Gw-201" value="DESCRIPTION" style="swimlane;fontStyle=1;childLayout=stackLayout;horizontal=1;startSize=30;horizontalStack=0;resizeParent=1;resizeParentMax=0;resizeLast=0;collapsible=1;marginBottom=0;whiteSpace=wrap;html=1;fontSize=25;" parent="KT0k6_RB1WQHjz7tz0Gw-200" vertex="1">
          <mxGeometry x="50" y="930" width="550" height="90" as="geometry" />
        </mxCell>
        <mxCell id="KT0k6_RB1WQHjz7tz0Gw-202" value="To delete a blog from mongodb and cloudinary" style="text;strokeColor=none;fillColor=none;align=left;verticalAlign=middle;spacingLeft=4;spacingRight=4;overflow=hidden;points=[[0,0.5],[1,0.5]];portConstraint=eastwest;rotatable=0;whiteSpace=wrap;html=1;fontSize=20;" parent="KT0k6_RB1WQHjz7tz0Gw-201" vertex="1">
          <mxGeometry y="30" width="550" height="30" as="geometry" />
        </mxCell>
        <mxCell id="KT0k6_RB1WQHjz7tz0Gw-203" value="Response : blog deleted successfully" style="text;strokeColor=none;fillColor=none;align=left;verticalAlign=middle;spacingLeft=4;spacingRight=4;overflow=hidden;points=[[0,0.5],[1,0.5]];portConstraint=eastwest;rotatable=0;whiteSpace=wrap;html=1;fontSize=20;" parent="KT0k6_RB1WQHjz7tz0Gw-201" vertex="1">
          <mxGeometry y="60" width="550" height="30" as="geometry" />
        </mxCell>
        <mxCell id="KT0k6_RB1WQHjz7tz0Gw-204" value="&lt;b&gt;&lt;font style=&quot;font-size: 30px;&quot;&gt;Sequence Diagram&lt;/font&gt;&lt;/b&gt;" style="text;html=1;align=center;verticalAlign=middle;resizable=0;points=[];autosize=1;strokeColor=none;fillColor=none;" parent="KT0k6_RB1WQHjz7tz0Gw-200" vertex="1">
          <mxGeometry x="510" y="153" width="290" height="50" as="geometry" />
        </mxCell>
        <mxCell id="KT0k6_RB1WQHjz7tz0Gw-205" value="Client" style="shape=umlLifeline;perimeter=lifelinePerimeter;whiteSpace=wrap;container=1;dropTarget=0;collapsible=0;recursiveResize=0;outlineConnect=0;portConstraint=eastwest;newEdgeStyle={&quot;edgeStyle&quot;:&quot;elbowEdgeStyle&quot;,&quot;elbow&quot;:&quot;vertical&quot;,&quot;curved&quot;:0,&quot;rounded&quot;:0};size=65;strokeWidth=5;fontStyle=1;fontSize=15;" parent="KT0k6_RB1WQHjz7tz0Gw-200" vertex="1">
          <mxGeometry x="34.5" y="223" width="150" height="538" as="geometry" />
        </mxCell>
        <mxCell id="KT0k6_RB1WQHjz7tz0Gw-206" value="Router" style="shape=umlLifeline;perimeter=lifelinePerimeter;whiteSpace=wrap;container=1;dropTarget=0;collapsible=0;recursiveResize=0;outlineConnect=0;portConstraint=eastwest;newEdgeStyle={&quot;edgeStyle&quot;:&quot;elbowEdgeStyle&quot;,&quot;elbow&quot;:&quot;vertical&quot;,&quot;curved&quot;:0,&quot;rounded&quot;:0};size=65;strokeWidth=5;fontStyle=1;fontSize=15;" parent="KT0k6_RB1WQHjz7tz0Gw-200" vertex="1">
          <mxGeometry x="391.5" y="223" width="150" height="538" as="geometry" />
        </mxCell>
        <mxCell id="KT0k6_RB1WQHjz7tz0Gw-207" value="Controller" style="shape=umlLifeline;perimeter=lifelinePerimeter;whiteSpace=wrap;container=1;dropTarget=0;collapsible=0;recursiveResize=0;outlineConnect=0;portConstraint=eastwest;newEdgeStyle={&quot;edgeStyle&quot;:&quot;elbowEdgeStyle&quot;,&quot;elbow&quot;:&quot;vertical&quot;,&quot;curved&quot;:0,&quot;rounded&quot;:0};size=65;strokeWidth=5;fontStyle=1;fontSize=15;" parent="KT0k6_RB1WQHjz7tz0Gw-200" vertex="1">
          <mxGeometry x="606.5" y="223" width="150" height="538" as="geometry" />
        </mxCell>
        <mxCell id="KT0k6_RB1WQHjz7tz0Gw-208" value="Cloudinary" style="shape=umlLifeline;perimeter=lifelinePerimeter;whiteSpace=wrap;container=1;dropTarget=0;collapsible=0;recursiveResize=0;outlineConnect=0;portConstraint=eastwest;newEdgeStyle={&quot;edgeStyle&quot;:&quot;elbowEdgeStyle&quot;,&quot;elbow&quot;:&quot;vertical&quot;,&quot;curved&quot;:0,&quot;rounded&quot;:0};size=65;strokeWidth=5;fontStyle=1;fontSize=15;" parent="KT0k6_RB1WQHjz7tz0Gw-200" vertex="1">
          <mxGeometry x="925.5" y="223" width="150" height="538" as="geometry" />
        </mxCell>
        <mxCell id="KT0k6_RB1WQHjz7tz0Gw-209" value="Database" style="shape=umlLifeline;perimeter=lifelinePerimeter;whiteSpace=wrap;container=1;dropTarget=0;collapsible=0;recursiveResize=0;outlineConnect=0;portConstraint=eastwest;newEdgeStyle={&quot;edgeStyle&quot;:&quot;elbowEdgeStyle&quot;,&quot;elbow&quot;:&quot;vertical&quot;,&quot;curved&quot;:0,&quot;rounded&quot;:0};size=65;strokeWidth=5;fontStyle=1;fontSize=15;" parent="KT0k6_RB1WQHjz7tz0Gw-200" vertex="1">
          <mxGeometry x="1125.5" y="223" width="150" height="538" as="geometry" />
        </mxCell>
        <mxCell id="KT0k6_RB1WQHjz7tz0Gw-210" value="DELETE /delete-blog_post?id=&lt;blog_id&gt;" style="verticalAlign=bottom;edgeStyle=elbowEdgeStyle;elbow=vertical;curved=0;rounded=0;endArrow=block;flowAnimation=1;strokeWidth=3;fontSize=11;" parent="KT0k6_RB1WQHjz7tz0Gw-200" source="KT0k6_RB1WQHjz7tz0Gw-205" target="KT0k6_RB1WQHjz7tz0Gw-206" edge="1">
          <mxGeometry relative="1" as="geometry">
            <Array as="points">
              <mxPoint x="296.5" y="332" />
            </Array>
          </mxGeometry>
        </mxCell>
        <mxCell id="KT0k6_RB1WQHjz7tz0Gw-211" value="Call deleteOneBlog()" style="verticalAlign=bottom;edgeStyle=elbowEdgeStyle;elbow=vertical;curved=0;rounded=0;endArrow=block;flowAnimation=1;strokeWidth=3;fontSize=11;" parent="KT0k6_RB1WQHjz7tz0Gw-200" source="KT0k6_RB1WQHjz7tz0Gw-206" target="KT0k6_RB1WQHjz7tz0Gw-207" edge="1">
          <mxGeometry relative="1" as="geometry">
            <Array as="points">
              <mxPoint x="582.5" y="386" />
            </Array>
          </mxGeometry>
        </mxCell>
        <mxCell id="KT0k6_RB1WQHjz7tz0Gw-212" value="Find and delete blog by ID" style="verticalAlign=bottom;edgeStyle=elbowEdgeStyle;elbow=vertical;curved=0;rounded=0;endArrow=block;flowAnimation=1;strokeWidth=3;fontSize=11;" parent="KT0k6_RB1WQHjz7tz0Gw-200" source="KT0k6_RB1WQHjz7tz0Gw-207" target="KT0k6_RB1WQHjz7tz0Gw-209" edge="1">
          <mxGeometry relative="1" as="geometry">
            <Array as="points">
              <mxPoint x="949.5" y="440" />
            </Array>
          </mxGeometry>
        </mxCell>
        <mxCell id="KT0k6_RB1WQHjz7tz0Gw-213" value="Return deleted blog data" style="verticalAlign=bottom;edgeStyle=elbowEdgeStyle;elbow=vertical;curved=0;rounded=0;dashed=1;dashPattern=2 3;endArrow=block;flowAnimation=1;strokeWidth=3;fontSize=11;" parent="KT0k6_RB1WQHjz7tz0Gw-200" source="KT0k6_RB1WQHjz7tz0Gw-209" target="KT0k6_RB1WQHjz7tz0Gw-207" edge="1">
          <mxGeometry relative="1" as="geometry">
            <Array as="points">
              <mxPoint x="952.5" y="494" />
            </Array>
          </mxGeometry>
        </mxCell>
        <mxCell id="KT0k6_RB1WQHjz7tz0Gw-214" value="Delete blog image from Cloudinary" style="verticalAlign=bottom;edgeStyle=elbowEdgeStyle;elbow=vertical;curved=0;rounded=0;endArrow=block;flowAnimation=1;strokeWidth=3;fontSize=11;" parent="KT0k6_RB1WQHjz7tz0Gw-200" source="KT0k6_RB1WQHjz7tz0Gw-207" target="KT0k6_RB1WQHjz7tz0Gw-208" edge="1">
          <mxGeometry relative="1" as="geometry">
            <Array as="points">
              <mxPoint x="849.5" y="548" />
            </Array>
          </mxGeometry>
        </mxCell>
        <mxCell id="KT0k6_RB1WQHjz7tz0Gw-215" value="Confirm image deletion" style="verticalAlign=bottom;edgeStyle=elbowEdgeStyle;elbow=vertical;curved=0;rounded=0;dashed=1;dashPattern=2 3;endArrow=block;flowAnimation=1;strokeWidth=3;fontSize=11;" parent="KT0k6_RB1WQHjz7tz0Gw-200" source="KT0k6_RB1WQHjz7tz0Gw-208" target="KT0k6_RB1WQHjz7tz0Gw-207" edge="1">
          <mxGeometry relative="1" as="geometry">
            <Array as="points">
              <mxPoint x="852.5" y="602" />
            </Array>
          </mxGeometry>
        </mxCell>
        <mxCell id="KT0k6_RB1WQHjz7tz0Gw-216" value="Response with confirmation of deletion" style="verticalAlign=bottom;edgeStyle=elbowEdgeStyle;elbow=vertical;curved=0;rounded=0;dashed=1;dashPattern=2 3;endArrow=block;flowAnimation=1;strokeWidth=3;fontSize=11;" parent="KT0k6_RB1WQHjz7tz0Gw-200" source="KT0k6_RB1WQHjz7tz0Gw-207" target="KT0k6_RB1WQHjz7tz0Gw-205" edge="1">
          <mxGeometry relative="1" as="geometry">
            <Array as="points">
              <mxPoint x="407.5" y="656" />
            </Array>
          </mxGeometry>
        </mxCell>
        <mxCell id="KT0k6_RB1WQHjz7tz0Gw-218" value="Backend" style="rounded=0;whiteSpace=wrap;html=1;fontStyle=1;fontSize=20;fillColor=#1ba1e2;fontColor=#ffffff;strokeColor=#006EAF;" parent="KT0k6_RB1WQHjz7tz0Gw-200" vertex="1">
          <mxGeometry x="67.5" y="761" width="1175" height="60" as="geometry" />
        </mxCell>
      </root>
    </mxGraphModel>
  </diagram>
</mxfile>
